<mxfile host="app.diagrams.net" modified="2022-05-02T23:53:30.894Z" agent="5.0 (Windows NT 10.0; Win64; x64) AppleWebKit/537.36 (KHTML, like Gecko) Chrome/100.0.4896.127 Safari/537.36" etag="MC3Y7Dg0M4wvao9NVR31" version="17.5.0" type="github">
  <diagram id="WJgSpGHogj0AdVicWlB5" name="Page-1">
    <mxGraphModel dx="637" dy="740" grid="1" gridSize="10" guides="1" tooltips="1" connect="1" arrows="1" fold="1" page="1" pageScale="1" pageWidth="850" pageHeight="1100" math="1" shadow="0">
      <root>
        <mxCell id="0" />
        <mxCell id="1" parent="0" />
        <mxCell id="YHDf70_otKDTlN83iNuv-1" value="&lt;div style=&quot;text-align: left&quot;&gt;&lt;span style=&quot;font-size: 40px&quot;&gt;AFINITĂȚI&lt;/span&gt;&lt;/div&gt;&lt;font style=&quot;font-size: 40px&quot;&gt;&lt;div style=&quot;text-align: left&quot;&gt;&lt;span&gt;de PROFIL&lt;/span&gt;&lt;/div&gt;&lt;div style=&quot;text-align: left&quot;&gt;&lt;span&gt;&quot;Dirac DELTA&quot;&lt;/span&gt;&lt;/div&gt;&lt;div style=&quot;text-align: left&quot;&gt;&lt;span&gt;pentru&lt;/span&gt;&lt;/div&gt;&lt;div style=&quot;text-align: left&quot;&gt;&lt;span&gt;HOMEOSTAZE&lt;/span&gt;&lt;/div&gt;&lt;div style=&quot;text-align: left&quot;&gt;&lt;span&gt;PROMISORIU AUTO-POIESICE&lt;/span&gt;&lt;/div&gt;&lt;/font&gt;" style="text;html=1;align=center;verticalAlign=middle;resizable=0;points=[];autosize=1;strokeColor=none;fillColor=none;" parent="1" vertex="1">
          <mxGeometry x="270" y="240" width="590" height="100" as="geometry" />
        </mxCell>
        <mxCell id="YHDf70_otKDTlN83iNuv-2" value="&lt;font style=&quot;font-size: 30px&quot;&gt;$$\infty$$&lt;/font&gt;" style="text;html=1;align=center;verticalAlign=middle;resizable=0;points=[];autosize=1;strokeColor=none;fillColor=none;fontSize=40;" parent="1" vertex="1">
          <mxGeometry x="470" y="200" width="150" height="60" as="geometry" />
        </mxCell>
        <mxCell id="YHDf70_otKDTlN83iNuv-3" value="" style="shape=waypoint;sketch=0;fillStyle=solid;size=6;pointerEvents=1;points=[];fillColor=none;resizable=0;rotatable=0;perimeter=centerPerimeter;snapToPoint=1;fontSize=20;" parent="1" vertex="1">
          <mxGeometry x="525" y="225" width="40" height="40" as="geometry" />
        </mxCell>
        <mxCell id="YHDf70_otKDTlN83iNuv-4" value="" style="endArrow=none;dashed=1;html=1;dashPattern=1 3;strokeWidth=2;rounded=0;fontSize=20;entryX=0.578;entryY=0.997;entryDx=0;entryDy=0;entryPerimeter=0;" parent="1" edge="1">
          <mxGeometry width="50" height="50" relative="1" as="geometry">
            <mxPoint x="544.8" y="275" as="sourcePoint" />
            <mxPoint x="544.8" y="250" as="targetPoint" />
          </mxGeometry>
        </mxCell>
        <mxCell id="YHDf70_otKDTlN83iNuv-5" value="&lt;u&gt;o&lt;/u&gt;" style="text;html=1;align=center;verticalAlign=middle;resizable=0;points=[];autosize=1;strokeColor=none;fillColor=none;fontSize=20;" parent="1" vertex="1">
          <mxGeometry x="520" y="250" width="30" height="30" as="geometry" />
        </mxCell>
        <mxCell id="YHDf70_otKDTlN83iNuv-6" value="&lt;u&gt;o&lt;/u&gt;" style="text;html=1;align=center;verticalAlign=middle;resizable=0;points=[];autosize=1;strokeColor=none;fillColor=none;fontSize=20;" parent="1" vertex="1">
          <mxGeometry x="540" y="250" width="30" height="30" as="geometry" />
        </mxCell>
      </root>
    </mxGraphModel>
  </diagram>
</mxfile>
